<svg width="238" height="87" viewBox="0 0 238 87" fill="none" xmlns="http://www.w3.org/2000/svg">
<path d="M18.807 60V27.053H29.053C39.769 27.053 44.61 32.27 44.61 42.798C44.61 51.211 41.273 60 29.147 60H18.807ZM25.951 32.975V54.078H28.583C35.304 54.078 37.231 49.801 37.231 43.456C37.231 35.513 33.753 32.975 28.536 32.975H25.951ZM48.2657 60V33.445H55.3627V60H48.2657ZM47.6547 26.536C47.6547 24.092 49.4407 22.306 51.6967 22.306C54.0937 22.306 55.8797 24.092 55.8797 26.536C55.8797 28.745 54.0937 30.531 51.6967 30.531C49.4407 30.531 47.6547 28.745 47.6547 26.536ZM81.444 34.714V58.825C81.444 66.063 76.368 69.635 69.271 69.635C62.738 69.635 60.106 67.802 58.602 66.016L62.597 60.799C63.913 62.632 66.498 63.901 69.271 63.901C72.937 63.901 74.488 62.538 74.488 58.778V57.415H74.3C73.313 58.308 71.48 58.919 69.083 58.919C63.584 58.919 58.649 56.193 58.649 46.652C58.649 39.179 62.879 33.116 71.574 33.116C76.227 33.116 79.094 33.68 81.444 34.714ZM74.441 39.179C73.454 38.85 72.655 38.709 71.527 38.709C67.814 38.709 65.699 41.294 65.699 46.37C65.699 51.822 67.579 53.185 70.728 53.185C72.279 53.185 73.548 52.715 74.441 51.822V39.179ZM86.1356 60V33.445H93.2326V60H86.1356ZM85.5246 26.536C85.5246 24.092 87.3106 22.306 89.5666 22.306C91.9636 22.306 93.7496 24.092 93.7496 26.536C93.7496 28.745 91.9636 30.531 89.5666 30.531C87.3106 30.531 85.5246 28.745 85.5246 26.536ZM106.342 60.235C101.783 60.235 98.4929 57.932 98.4929 51.493V38.85H95.1089V34.432L98.5399 33.022L100.984 26.771H105.496V33.445H112.123V38.85H105.496V51.681C105.496 53.514 106.53 54.454 108.269 54.454C109.397 54.454 110.854 54.078 111.888 53.279L113.721 58.59C112.828 59.248 110.76 60.235 106.342 60.235ZM127.367 53.138V49.378C122.714 49.049 120.411 50.13 120.411 52.433C120.411 53.937 121.445 55.018 123.278 55.018C125.017 55.018 126.568 54.219 127.367 53.138ZM123.513 32.975C130.281 32.975 134.041 35.325 134.041 41.764V52.386C134.041 53.89 134.605 54.548 135.874 54.548H136.626V59.436C135.498 60.141 134.276 60.329 133.101 60.329C130.563 60.329 129.106 59.107 128.307 57.462H128.119C127.132 58.778 125.158 60.423 121.351 60.423C116.181 60.423 113.502 56.898 113.502 53.091C113.502 46.981 119.001 44.161 127.367 44.584V42.516C127.367 39.555 125.722 38.662 123.56 38.662C121.022 38.662 119.659 40.119 119.001 41.67L113.972 37.957C115.006 36.5 117.638 32.975 123.513 32.975ZM138.782 24.374H145.879V51.634C145.879 53.608 146.772 54.266 148.088 54.266C148.605 54.266 148.84 54.219 149.075 54.172V59.765C148.229 60.094 147.242 60.423 145.691 60.423C141.367 60.423 138.782 57.885 138.782 53.467V24.374Z" fill="white"/>
<path d="M209.967 41.5152C210.732 57.505 198.11 67.9923 183.483 67.9923C168.857 67.9923 157 56.1381 157 41.5152C157 26.8923 171.467 15.5569 183.483 15.0381C195.5 14.5193 212.674 19.4062 202.681 23.2754C192.687 27.1447 209.202 25.5253 209.967 41.5152Z" fill="#ED1C24"/>
<path d="M208.967 39.5152C209.732 55.505 197.11 65.9923 182.483 65.9923C167.857 65.9923 156 54.1381 156 39.5152C156 24.8923 170.467 13.5569 182.483 13.0381C194.5 12.5193 211.674 17.4062 201.681 21.2754C191.687 25.1447 208.202 23.5253 208.967 39.5152Z" fill="#004AAD"/>
<path d="M173.53 41.31H173.65L177.58 29.97H184.45V51H180.07V35.43H179.95L175.27 48.48H171.49L166.87 35.43H166.69V51H162.49V29.97H169.54L173.53 41.31ZM200.993 51H188.183V29.97H200.633V33.75H192.743V38.43H199.523V42.21H192.743V47.22H200.993V51Z" fill="white"/>
</svg>
