<svg width="78" height="87" viewBox="0 0 78 87" fill="none" xmlns="http://www.w3.org/2000/svg">
<path d="M65.9669 44.5152C66.732 60.505 54.1099 70.9923 39.4835 70.9923C24.8571 70.9923 13 59.1381 13 44.5152C13 29.8923 27.4669 18.5569 39.4835 18.0381C51.5 17.5193 68.6741 22.4062 58.6805 26.2754C48.6869 30.1447 65.2019 28.5253 65.9669 44.5152Z" fill="#ED1C24"/>
<path d="M64.9669 42.5152C65.732 58.505 53.1099 68.9923 38.4835 68.9923C23.8571 68.9923 12 57.1381 12 42.5152C12 27.8923 26.4669 16.5569 38.4835 16.0381C50.5 15.5193 67.6741 20.4062 57.6805 24.2754C47.6869 28.1447 64.2019 26.5253 64.9669 42.5152Z" fill="#004AAD"/>
<path d="M29.53 44.31H29.65L33.58 32.97H40.45V54H36.07V38.43H35.95L31.27 51.48H27.49L22.87 38.43H22.69V54H18.49V32.97H25.54L29.53 44.31ZM56.9931 54H44.1831V32.97H56.6331V36.75H48.7431V41.43H55.5231V45.21H48.7431V50.22H56.9931V54Z" fill="white"/>
</svg>
